<?xml version="1.0" encoding="UTF-8"?><svg id="Layer_2" xmlns="http://www.w3.org/2000/svg" viewBox="0 0 1533.52 430.52"><defs><style>.cls-1{fill:#fff;}.cls-2{fill:rgba(13,110,253,.2);}.cls-2,.cls-3{fill-rule:evenodd;}.cls-4,.cls-3{fill:#0d6efd;}.cls-5{fill:#acacac;}</style></defs><g id="Layer_1-2"><g><g><g><path class="cls-4" d="M529.5,61.3h87.92c18.86,0,32.87,4.59,42.56,12.49,10.45,8.66,15.8,20.39,15.8,34.91,0,18.09-9.43,29.56-25.48,35.68v.76c19.88,6.12,32.62,22.94,32.62,44.6,0,18.35-6.63,31.6-18.6,40.77-10.7,8.41-25.74,13-44.85,13h-89.96V61.3Zm81.29,72.12c13,0,21.92-6.37,21.92-18.35s-8.41-18.09-21.66-18.09h-36.95v36.44h36.7Zm3.57,73.9c14.78,0,23.95-8.41,23.95-21.41,0-14.53-10.7-21.92-24.46-21.92h-39.75v43.32h40.26Z"/><path class="cls-4" d="M694.37,152.79c0-54.54,34.91-95.05,89.96-95.05s90.21,40.52,90.21,95.05-34.91,95.05-90.21,95.05-89.96-40.52-89.96-95.05Zm134.3,0c0-33.13-14.53-58.61-44.09-58.61s-44.34,25.48-44.34,58.61,15.04,58.36,44.34,58.36,44.09-25.23,44.09-58.36Z"/><path class="cls-4" d="M884.73,152.79c0-54.54,34.91-95.05,89.96-95.05s90.21,40.52,90.21,95.05-34.91,95.05-90.21,95.05-89.96-40.52-89.96-95.05Zm134.3,0c0-33.13-14.53-58.61-44.09-58.61s-44.34,25.48-44.34,58.61,15.04,58.36,44.34,58.36,44.09-25.23,44.09-58.36Z"/><path class="cls-4" d="M1082.47,61.3h45.11V127.31l62.69-66h53.52l-69.83,73.14,73.9,109.07h-52.5l-52.5-78.75-15.29,16.05v62.69h-45.11V61.3Z"/><path class="cls-4" d="M1260.09,61.3h45.11V205.29h81.8v38.23h-126.91V61.3Z"/><path class="cls-4" d="M1426.75,176.24l-61.67-114.93h49.18l23.45,47.15c6.12,12.49,11.98,27.78,11.98,27.78h.51s6.37-15.29,12.49-27.78l23.19-47.15h47.65l-61.67,114.93v67.28h-45.11v-67.28Z"/></g><g><path class="cls-5" d="M529.54,306.67h16.9l7.76,29.8c1.38,5.26,2.88,12.02,2.88,12.02h.25s1.38-6.89,2.75-12.14l8.01-29.68h14.52l8.39,29.68c1.38,5.38,3.01,12.14,3.01,12.14h.25s1.5-6.76,2.88-12.02l8.14-29.8h16.53l-19.16,64.23h-15.53l-8.51-31.55c-1.38-5.13-2.88-11.14-2.88-11.14h-.25s-1.63,6.01-3.01,11.14l-8.77,31.55h-15.4l-18.78-64.23Z"/><path class="cls-5" d="M622.82,338.73c0-19.03,12.9-33.81,31.68-33.81,20.66,0,31.68,15.78,31.68,38.69h-46.58c1.25,9.89,6.76,16.03,16.4,16.03,6.64,0,10.52-3.01,12.4-7.89h16.78c-2.38,11.39-12.52,21.04-29.05,21.04-21.29,0-33.31-14.9-33.31-34.06Zm17.03-6.89h28.55c-.5-8.14-5.89-13.77-13.65-13.77-9.02,0-13.4,5.38-14.9,13.77Z"/><path class="cls-5" d="M710.72,362.89h-.25v8.01h-16.4v-89.53h17.03v33.06h.38c3.51-5.38,9.02-9.52,17.91-9.52,16.15,0,27.67,13.9,27.67,33.93s-11.02,33.93-27.17,33.93c-9.02,0-15.4-3.88-19.16-9.89Zm29.05-24.04c0-11.89-4.76-20.16-14.27-20.16-10.77,0-14.78,8.64-14.78,20.54s5.89,19.28,15.4,19.28c8.76,0,13.65-7.26,13.65-19.66Z"/><path class="cls-5" d="M760.93,350.12h15.78c1.13,7.39,6.39,10.64,14.02,10.64s11.77-2.88,11.77-7.39c0-6.13-8.14-6.76-16.9-8.51-11.52-2.25-22.79-5.38-22.79-19.41s11.52-20.53,26.17-20.53c16.9,0,26.29,8.39,27.55,21.29h-15.4c-.75-6.89-5.13-9.39-12.4-9.39-6.64,0-11.02,2.5-11.02,7.14,0,5.51,8.51,6.01,17.66,7.89,10.77,2.25,22.66,5.26,22.66,20.28,0,12.9-11.02,20.66-27.05,20.66-18.66,0-29.05-9.02-30.05-22.66Z"/><path class="cls-5" d="M825.67,281.38h17.03v15.28h-17.03v-15.28Zm0,25.29h17.03v64.23h-17.03v-64.23Z"/><path class="cls-5" d="M849.96,306.67h8.89v-20.03h16.65v20.03h11.02v11.27h-11.02v34.06c0,4.76,2.63,6.39,6.39,6.39,2.13,0,5.01-.13,5.01-.13v12.52s-3.88,.25-10.64,.25c-8.26,0-17.4-3.26-17.4-15.4v-37.69h-8.89v-11.27Z"/><path class="cls-5" d="M891.53,338.73c0-19.03,12.9-33.81,31.68-33.81,20.66,0,31.68,15.78,31.68,38.69h-46.58c1.25,9.89,6.76,16.03,16.4,16.03,6.64,0,10.52-3.01,12.4-7.89h16.78c-2.38,11.39-12.52,21.04-29.05,21.04-21.29,0-33.31-14.9-33.31-34.06Zm17.03-6.89h28.55c-.5-8.14-5.88-13.77-13.65-13.77-9.02,0-13.4,5.38-14.9,13.77Z"/></g></g><g><g id="Group"><g id="logo"><path id="_2" class="cls-2" d="M375.36,0c42.35,0,76.69,36.14,76.69,80.72V349.8c0,44.58-34.33,80.72-76.69,80.72H119.74c-42.35,0-76.69-36.14-76.69-80.72V80.72C43.05,36.14,77.39,0,119.74,0h255.62Z"/><path id="_1" class="cls-3" d="M332.31,0c42.35,0,76.69,36.14,76.69,80.72V349.8c0,44.58-34.33,80.72-76.69,80.72H76.69C34.33,430.52,0,394.38,0,349.8V80.72C0,36.14,34.33,0,76.69,0h255.62Z"/></g></g><g><path class="cls-1" d="M327.24,284.75c-3.04,6.41-5.8,7.81-12.75,6.32-21.34-4.59-42.9-6.84-64.71-5.27-8.49,.61-16.91,2.11-25.38,3.2,1.07-.94,2.28-2.09,3.58-3.12,10.47-8.32,22.46-13.46,35.49-15.84,8.52-1.55,17.23-2.27,25.89-2.86,9.23-.64,16.13-4.52,20.42-12.78,1.89-3.64,2.28-7.59,2.28-11.63-.01-34.91,0-69.82,0-104.73,0-1.03,0-2.05,0-3.04,8.52-1.08,12.21-.39,15.18,6.4v143.36Z"/><path class="cls-1" d="M197.56,282.28c-1.91-1.76-3.5-3.3-5.17-4.74-14.32-12.37-31.15-19.18-49.66-21.96-7.48-1.12-15.07-1.5-22.63-2.01-6.11-.41-9.55-3.78-9.55-9.93-.01-43.22-.01-86.43,0-129.65,0-6.46,3.85-9.96,10.3-9.77,12.35,.36,24.49,1.88,36.24,5.91,15.96,5.47,29.23,14.56,38.47,28.91,1.19,1.85,2.07,4.28,2.08,6.44,.12,45.21,.09,90.43,.08,135.64,0,.23-.06,.46-.16,1.17Z"/><path class="cls-1" d="M211.28,282.38c0-1.54,0-2.49,0-3.44,0-43.06,.13-86.11-.14-129.17-.04-6.44,2.16-11.34,6-16.06,12.11-14.89,28.13-23.09,46.57-26.7,8.26-1.62,16.76-2.1,25.18-2.74,5.82-.44,9.55,3.59,9.55,9.75,.01,25.64,0,51.28,0,76.93,0,17.17,0,34.35,0,51.52,0,7.82-3.11,10.95-11.02,11.1-15.19,.3-30.02,2.61-44.26,8.13-11.22,4.35-21.3,10.49-29.93,18.94-.49,.48-1.04,.92-1.98,1.74Z"/><path class="cls-1" d="M184.77,289.55c-16.55-3.87-33.08-4.78-49.74-3.95-13.83,.69-27.48,2.64-41,5.59-7.67,1.67-12.27-2.02-12.28-9.89,0-45.46,0-90.92,0-136.39,0-6.98,3.3-10.28,10.24-10.3,1.51,0,3.02,0,4.94,0,0,1.15,0,2.14,0,3.14,0,35.08,.03,70.15-.02,105.23-.01,7.92,2.55,14.53,8.89,19.47,4.2,3.28,9.04,4.56,14.3,4.66,10.01,.2,19.92,1.24,29.63,3.78,12.28,3.2,23.62,8.29,33.31,16.67,.48,.42,.95,.85,1.41,1.3,.1,.1,.14,.27,.34,.7Z"/></g></g></g></g></svg>